<?xml version="1.0" standalone="no"?><!DOCTYPE svg PUBLIC "-//W3C//DTD SVG 1.1//EN" "http://www.w3.org/Graphics/SVG/1.1/DTD/svg11.dtd"><svg t="1584113476047" class="icon" viewBox="0 0 1638 1024" version="1.1" xmlns="http://www.w3.org/2000/svg" p-id="5758" xmlns:xlink="http://www.w3.org/1999/xlink" width="319.921875" height="200"><defs><style type="text/css"></style></defs><path d="M1570.188971 1024H443.788971a68.266667 68.266667 0 0 1-52.224-24.234667l-375.466667-443.733333a68.266667 68.266667 0 0 1 0-88.064l375.466667-443.733333A68.266667 68.266667 0 0 1 443.788971 0h1126.4a68.266667 68.266667 0 0 1 68.266666 68.266667v887.466666a68.266667 68.266667 0 0 1-68.266666 68.266667z m-1094.656-136.533333H1501.922304V136.533333H475.532971L157.751637 512z" fill="#2c2c2c" p-id="5759"></path><path d="M819.255637 512l124.586667-124.928a50.858667 50.858667 0 0 0 0-72.362667 51.541333 51.541333 0 0 0-72.362667 0l-124.586666 124.928-123.904-124.928a51.541333 51.541333 0 0 0-72.362667 0 50.858667 50.858667 0 0 0 0 72.362667L675.554304 512l-124.928 124.928a50.858667 50.858667 0 0 0 0 72.362667 51.2 51.2 0 0 0 72.362667 0l124.928-124.928 124.586666 124.928a52.224 52.224 0 0 0 36.181334 15.018666 51.2 51.2 0 0 0 36.181333-87.381333z" fill="#2c2c2c" p-id="5760"></path></svg>