<?xml version="1.0" standalone="no"?><!DOCTYPE svg PUBLIC "-//W3C//DTD SVG 1.1//EN" "http://www.w3.org/Graphics/SVG/1.1/DTD/svg11.dtd"><svg t="1584033684065" class="icon" viewBox="0 0 1024 1024" version="1.1" xmlns="http://www.w3.org/2000/svg" p-id="6453" xmlns:xlink="http://www.w3.org/1999/xlink" width="200" height="200"><defs><style type="text/css"></style></defs><path d="M509.663232 492.42112l269.723648-101.974016-268.42112-79.034368-268.118016 79.454208 266.815488 101.554176z m1.339392-138.297344l139.778048 41.156608-141.068288 53.334016-139.016192-52.912128 140.306432-41.578496z" fill="#707070" p-id="6454"></path><path d="M843.116544 390.432768l107.036672-102.330368 55.59296-53.147648-75.126784-16.467968-275.034112-60.29312-19.587072-4.294656-15.405056 12.838912-108.9536 90.79808-102.838272-90.134528-15.087616-13.223936-19.697664 3.813376-281.64096 54.536192-76.404736 14.794752 55.453696 54.603776 110.753792 109.056-113.266688 111.70816-43.188224 42.592256 55.642112 24.14592 116.19328 50.42176v135.667712l26.054656 10.17856 272.447488 106.440704 15.112192 5.904384 15.056896-6.045696 273.385472-109.787136 25.696256-10.319872V616.071168l112.429056-47.331328 55.085056-23.189504-41.504768-43.005952-108.204032-112.111616z m-58.765312 198.443008v135.323648L510.96576 833.98656l-272.447488-106.440704v-134.572032L97.66912 531.853312l142.860288-140.894208-140.36992-138.21952 281.64096-54.536192 129.165312 113.209344 135.847936-113.209344 275.034112 60.29312-136.783872 130.768896 136.783872 141.727744-137.496576 57.882624z" fill="#707070" p-id="6455"></path><path d="M242.845696 390.866944l-1.603584-0.610304-0.712704 0.702464 0.462848 0.456704z" fill="#707070" p-id="6456"></path></svg>