<?xml version="1.0" standalone="no"?><!DOCTYPE svg PUBLIC "-//W3C//DTD SVG 1.1//EN" "http://www.w3.org/Graphics/SVG/1.1/DTD/svg11.dtd"><svg t="1584287233064" class="icon" viewBox="0 0 1024 1024" version="1.1" xmlns="http://www.w3.org/2000/svg" p-id="44045" xmlns:xlink="http://www.w3.org/1999/xlink" width="200" height="200"><defs><style type="text/css"></style></defs><path d="M317.79 604.97m-37.28 0a37.28 37.28 0 1 0 74.56 0 37.28 37.28 0 1 0-74.56 0Z" fill="#2c2c2c" p-id="44046"></path><path d="M705.54 604.97m-37.28 0a37.28 37.28 0 1 0 74.56 0 37.28 37.28 0 1 0-74.56 0Z" fill="#2c2c2c" p-id="44047"></path><path d="M735.37 146.37H287.96c-53.45 0-96.94 43.49-96.94 96.94v492.15c0 53.45 43.49 96.94 96.94 96.94h33.93c-0.21 1.22-0.38 2.45-0.38 3.73v29.83c0 12.3 10.07 22.37 22.37 22.37s22.37-10.07 22.37-22.37v-29.83c0-1.28-0.17-2.51-0.38-3.73h291.58c-0.21 1.22-0.38 2.45-0.38 3.73v29.83c0 12.3 10.07 22.37 22.37 22.37s22.37-10.07 22.37-22.37v-29.83c0-1.28-0.17-2.51-0.38-3.73h33.93c53.45 0 96.94-43.49 96.94-96.94V243.31c0.01-53.45-43.48-96.94-96.93-96.94z m52.2 589.09c0 28.78-23.42 52.2-52.2 52.2H287.96c-28.78 0-52.2-23.42-52.2-52.2v-223.7h551.81v223.7z m0-268.44H235.76V243.31c0-28.78 23.42-52.2 52.2-52.2h447.41c28.78 0 52.2 23.42 52.2 52.2v223.71zM162.46 530.4h-41.68c-0.84 0-1.53-0.69-1.53-1.53V382.8c0-0.84 0.69-1.53 1.53-1.53h41.68c0.84 0 1.53 0.69 1.53 1.53v146.07c0 0.84-0.69 1.53-1.53 1.53zM904.41 530.4h-41.68c-0.84 0-1.53-0.69-1.53-1.53V382.8c0-0.84 0.69-1.53 1.53-1.53h41.68c0.84 0 1.53 0.69 1.53 1.53v146.07c0.01 0.84-0.68 1.53-1.53 1.53z" fill="#2c2c2c" p-id="44048"></path></svg>