<?xml version="1.0" standalone="no"?><!DOCTYPE svg PUBLIC "-//W3C//DTD SVG 1.1//EN" "http://www.w3.org/Graphics/SVG/1.1/DTD/svg11.dtd"><svg t="1584287271464" class="icon" viewBox="0 0 1024 1024" version="1.1" xmlns="http://www.w3.org/2000/svg" p-id="45779" xmlns:xlink="http://www.w3.org/1999/xlink" width="200" height="200"><defs><style type="text/css"></style></defs><path d="M934.4 526.933333c-2.133333-21.333333-8.533333-40.533333-21.333333-55.466666 12.8-6.4 19.2-19.2 17.066666-29.866667-2.133333-17.066667-19.2-29.866667-38.4-27.733333l-27.733333 4.266666c-4.266667 0-8.533333 2.133333-12.8 4.266667l-27.733333-155.733333C810.666667 213.333333 759.466667 170.666667 706.133333 170.666667h-74.666666V119.466667c0-12.8-8.533333-21.333333-21.333334-21.333334h-196.266666c-12.8 0-21.333333 8.533333-21.333334 21.333334V170.666667h-85.333333c-53.333333 0-102.4 42.666667-110.933333 96l-21.333334 151.466666c-2.133333 0-4.266667-2.133333-8.533333-2.133333l-27.733333-4.266667c-19.2-2.133333-38.4 8.533333-40.533334 25.6-2.133333 12.8 4.266667 23.466667 14.933334 29.866667-12.8 14.933333-23.466667 36.266667-23.466667 57.6l-14.933333 238.933333c-2.133333 25.6 6.4 49.066667 23.466666 66.133334 17.066667 17.066667 40.533333 27.733333 64 27.733333h44.8v76.8c0 12.8 10.666667 21.333333 21.333334 21.333333s21.333333-8.533333 21.333333-21.333333v-76.8h520.533333v76.8c0 12.8 8.533333 21.333333 21.333334 21.333333 10.666667 0 21.333333-8.533333 21.333333-21.333333v-76.8h42.666667c25.6 0 46.933333-10.666667 64-27.733333s25.6-40.533333 23.466666-66.133334l-8.533333-236.8zM435.2 140.8h153.6V170.666667h-153.6V140.8z m-196.266667 132.266667c4.266667-32 36.266667-59.733333 68.266667-59.733334h401.066667c32 0 66.133333 27.733333 72.533333 59.733334l29.866667 162.133333H215.466667l23.466666-162.133333z m652.8 526.933333c-8.533333 8.533333-21.333333 14.933333-34.133333 14.933333H164.266667c-12.8 0-25.6-4.266667-34.133334-14.933333-8.533333-8.533333-12.8-21.333333-12.8-34.133333l12.8-236.8c2.133333-27.733333 25.6-51.2 53.333334-51.2h652.8c27.733333 0 51.2 23.466667 53.333333 51.2l12.8 236.8c2.133333 12.8-2.133333 25.6-10.666667 34.133333z" fill="#666666" p-id="45780"></path><path d="M320 646.4m-42.666667 0a42.666667 42.666667 0 1 0 85.333334 0 42.666667 42.666667 0 1 0-85.333334 0Z" fill="#666666" p-id="45781"></path><path d="M691.2 646.4m-42.666667 0a42.666667 42.666667 0 1 0 85.333334 0 42.666667 42.666667 0 1 0-85.333334 0Z" fill="#666666" p-id="45782"></path></svg>