<?xml version="1.0" standalone="no"?><!DOCTYPE svg PUBLIC "-//W3C//DTD SVG 1.1//EN" "http://www.w3.org/Graphics/SVG/1.1/DTD/svg11.dtd"><svg t="1584287102201" class="icon" viewBox="0 0 1024 1024" version="1.1" xmlns="http://www.w3.org/2000/svg" p-id="33548" xmlns:xlink="http://www.w3.org/1999/xlink" width="200" height="200"><defs><style type="text/css"></style></defs><path d="M611.4 946.6H370.5c-4.7 0-8.5-3.8-8.5-8.5V489.5c0-4.7 3.8-8.5 8.5-8.5h240.8c4.7 0 8.5 3.8 8.5 8.5v448.6c0.1 4.7-3.7 8.5-8.4 8.5z m-235.4-14h229.9V494.9H376v437.7z" fill="#050505" p-id="33549"></path><path d="M575.4 488.1H400.3V288.8c0-4.7 3.8-8.6 8.6-8.6h158c4.7 0 8.6 3.8 8.6 8.6v199.3z m-161.1-14h147.1V294.3H414.3v179.8z" fill="#050505" p-id="33550"></path><path d="M557 290.8H416.1V206c0-67.9 55.2-123.1 123.1-123.1H557v207.9z m-126.9-14H543V97h-3.9C479 97 430 145.9 430 206.1v70.7z" fill="#050505" p-id="33551"></path></svg>