<?xml version="1.0" standalone="no"?><!DOCTYPE svg PUBLIC "-//W3C//DTD SVG 1.1//EN" "http://www.w3.org/Graphics/SVG/1.1/DTD/svg11.dtd"><svg t="1584286177797" class="icon" viewBox="0 0 1024 1024" version="1.1" xmlns="http://www.w3.org/2000/svg" p-id="16989" xmlns:xlink="http://www.w3.org/1999/xlink" width="200" height="200"><defs><style type="text/css"></style></defs><path d="M962.382684 86.293795a88.658009 88.658009 0 0 0-88.658009-86.293795H150.275325a88.658009 88.658009 0 0 0-88.658009 86.293795L42.999134 805.901299a88.658009 88.658009 0 0 0 88.658009 91.022222h760.685714a88.658009 88.658009 0 0 0 88.658009-91.022222zM913.325253 827.474747a29.55267 29.55267 0 0 1-20.982396 9.161328H131.657143a29.55267 29.55267 0 0 1-21.277922-9.161328 29.55267 29.55267 0 0 1-8.274748-20.095815L120.722655 88.658009a29.55267 29.55267 0 0 1 29.55267-29.55267h723.44935a29.55267 29.55267 0 0 1 29.55267 29.55267l18.618182 719.607503a29.55267 29.55267 0 0 1-8.570274 19.209235z" fill="#231815" p-id="16990"></path><path d="M270.850216 504.759596H752.263203A59.105339 59.105339 0 0 0 811.368543 443.290043l-8.865801-241.149783a59.105339 59.105339 0 0 0-59.105339-56.741126H279.420491a59.105339 59.105339 0 0 0-59.105339 57.036652L211.744877 443.290043a59.105339 59.105339 0 0 0 59.105339 61.174026zM279.420491 204.8h465.159018l7.683694 240.854257H270.850216zM289.172872 627.698701H245.730447a43.146898 43.146898 0 0 0 0 86.293795h43.442425a43.146898 43.146898 0 0 0 0-86.293795zM778.269553 627.698701h-43.146898a43.146898 43.146898 0 0 0 0 86.293795h43.146898a43.146898 43.146898 0 0 0 0-86.293795zM727.143434 964.894661H296.856566a29.55267 29.55267 0 1 0 0 59.105339h430.286868a29.55267 29.55267 0 0 0 0-59.105339z" fill="#231815" p-id="16991"></path></svg>