<?xml version="1.0" standalone="no"?><!DOCTYPE svg PUBLIC "-//W3C//DTD SVG 1.1//EN" "http://www.w3.org/Graphics/SVG/1.1/DTD/svg11.dtd"><svg t="1584374527101" class="icon" viewBox="0 0 1024 1024" version="1.1" xmlns="http://www.w3.org/2000/svg" p-id="7487" xmlns:xlink="http://www.w3.org/1999/xlink" width="200" height="200"><defs><style type="text/css"></style></defs><path d="M439.893333 336.213333c-126.293333 41.386667-232.96 194.56-232.96 316.586667 0 135.68 137.386667 243.2 305.066667 243.2s305.066667-107.52 305.066667-243.2c0-123.733333-108.373333-277.76-236.373334-317.866667-11.093333-3.413333-23.04 2.56-26.88 14.08-3.413333 11.093333 2.56 23.04 14.08 26.88 109.653333 34.133333 206.506667 171.946667 206.506667 277.333334 0 109.653333-116.48 200.533333-262.4 200.533333s-262.4-90.88-262.4-200.533333c0-104.106667 94.72-240.64 203.52-276.053334 11.093333-3.84 17.066667-15.786667 13.653333-26.88-3.84-11.946667-15.786667-17.92-26.88-14.08z" fill="#2c2c2c" p-id="7488"></path><path d="M567.893333 203.093333c-6.826667-12.8-10.24-18.773333-16.64-25.173333-9.813333-10.24-21.76-15.786667-36.266666-15.786667-14.08 0-26.453333 5.12-36.266667 14.506667-6.4 5.973333-10.24 11.52-18.346667 23.466667-6.826667 10.24-10.24 14.506667-13.226666 16.64-0.426667 0-0.853333-0.426667-1.28-0.426667-3.413333-1.706667-4.266667-2.133333-16.64-11.093333-14.08-10.24-23.466667-15.36-35.413334-18.346667-17.493333-4.266667-34.56-0.426667-49.92 12.373333-28.586667 23.466667-27.733333 58.026667-4.693333 93.013334 17.92 27.306667 49.92 55.893333 88.746667 81.493333l23.466666-35.84c-34.56-22.613333-62.293333-47.36-76.8-69.12-12.373333-18.773333-12.8-29.013333-3.84-36.266667 8.533333-7.253333 14.933333-5.546667 33.706667 7.68 0.853333 0.853333 4.266667 2.986667 5.12 3.413334 2.133333 1.28 3.84 2.56 5.546667 3.84 4.266667 2.986667 8.106667 5.12 11.946666 7.253333 11.946667 5.973333 23.466667 7.68 35.413334 2.56 14.506667-5.973333 21.333333-14.08 33.706666-33.706667 9.813333-15.36 13.226667-18.346667 18.773334-18.346666 4.266667 0 6.826667 2.986667 15.36 18.346666 11.52 21.76 18.346667 30.72 33.706666 37.12 11.52 5.12 23.466667 3.84 35.84-0.853333 7.253333-2.986667 8.96-3.84 24.746667-13.653333 17.92-10.666667 26.026667-13.226667 33.28-10.24 7.253333 2.986667 9.813333 11.093333 3.413333 25.6-10.24 23.893333-39.68 50.773333-88.32 75.093333l19.2 37.973333c56.746667-28.586667 93.866667-62.293333 108.373334-96.853333 14.933333-34.986667 4.266667-69.546667-26.88-81.92-13.653333-5.546667-27.306667-5.546667-41.386667-1.28-9.386667 2.986667-17.493333 7.253333-29.866667 14.506667-12.8 7.68-14.506667 8.96-18.773333 10.24-1.706667 0.426667-2.56 0.853333-3.413333 1.28-2.986667-1.28-5.973333-5.546667-12.373334-17.493334z" fill="#2c2c2c" p-id="7489"></path><path d="M528.64 738.56c32.426667-8.106667 56.746667-36.693333 58.026667-71.68 1.28-42.24-31.573333-78.08-74.24-79.36h-3.413334c-22.186667-0.853333-39.253333-19.2-38.826666-41.386667 0.853333-22.186667 19.2-39.253333 41.386666-38.826666 22.186667 0.853333 39.253333 19.2 38.826667 41.386666-0.426667 9.386667 6.826667 17.066667 16.213333 17.066667 9.386667 0.426667 17.066667-6.826667 17.066667-16.213333 1.28-35.413333-22.613333-65.706667-55.466667-73.813334v-15.36c0-9.386667-7.68-16.64-16.64-16.64s-16.64 7.68-16.64 16.64v14.933334c-32 6.826667-56.746667 34.986667-58.026666 69.12-1.28 40.533333 30.293333 74.666667 70.826666 75.946666h3.413334c23.893333 0.853333 42.666667 20.906667 41.813333 44.8-0.853333 23.893333-20.906667 42.666667-44.8 41.813334-23.893333-0.853333-42.666667-20.906667-41.813333-44.8 0.426667-9.386667-6.826667-17.066667-16.213334-17.066667-9.386667-0.426667-17.066667 6.826667-17.066666 16.213333-1.28 38.4 25.6 70.826667 61.866666 78.08v14.933334c0 9.386667 7.68 16.64 16.64 16.64s16.64-7.68 16.64-16.64v-15.786667z" fill="#2c2c2c" p-id="7490"></path></svg>