<?xml version="1.0" standalone="no"?><!DOCTYPE svg PUBLIC "-//W3C//DTD SVG 1.1//EN" "http://www.w3.org/Graphics/SVG/1.1/DTD/svg11.dtd"><svg t="1584285482598" class="icon" viewBox="0 0 1024 1024" version="1.1" xmlns="http://www.w3.org/2000/svg" p-id="10593" xmlns:xlink="http://www.w3.org/1999/xlink" width="200" height="200"><defs><style type="text/css"></style></defs><path d="M654.441749 503.908857H354.881294c-28.977582 0-52.686512-23.708931-52.686513-52.686512V151.661889c0-28.977582 23.708931-52.686512 52.686513-52.686512h299.560455c28.977582 0 52.686512 23.708931 52.686513 52.686512v299.560456c0 28.977582-23.708931 52.686512-52.686513 52.686512zM354.881294 114.028666c-20.698273 0-37.633223 16.93495-37.633223 37.633223v299.560456c0 20.698273 16.93495 37.633223 37.633223 37.633223h299.560455c20.698273 0 37.633223-16.93495 37.633223-37.633223V151.661889c0-20.698273-16.93495-37.633223-37.633223-37.633223H354.881294z" fill="#666666" p-id="10594"></path><path d="M867.445792 818.898934H132.092613c-38.385888 0-69.621463-31.235575-69.621463-69.621462v-362.031607c0-38.385888 31.235575-69.621463 69.621463-69.621462h81.287762c22.956266 0 41.396545 18.440279 41.396545 41.396545v263.432562c0 22.203602 18.440279 40.643881 40.643881 40.643881h413.965454c22.203602 0 40.643881-18.440279 40.643881-40.643881v-263.432562c0-22.956266 18.440279-41.396545 41.396545-41.396545h76.019111c38.385888 0 69.621463 31.235575 69.621463 69.621462v362.031607c0 38.385888-31.235575 69.621463-69.621463 69.621462zM132.092613 332.677692c-30.106578 0-54.568173 24.461595-54.568173 54.568173v362.031607c0 30.106578 24.461595 54.568173 54.568173 54.568173h735.353179c30.106578 0 54.568173-24.461595 54.568173-54.568173v-362.031607c0-30.106578-24.461595-54.568173-54.568173-54.568173h-76.019111c-14.676957 0-26.343256 11.666299-26.343256 26.343256v263.432562c0 30.859243-24.837927 55.69717-55.69717 55.69717h-413.965454c-30.859243 0-55.69717-24.837927-55.69717-55.69717v-263.432562c0-14.676957-11.666299-26.343256-26.343256-26.343256H132.092613z" fill="#666666" p-id="10595"></path><path d="M760.567438 639.38846h-15.053289v-37.633223c0-6.77398-5.644983-12.418964-12.418963-12.418964H270.959206c-6.77398 0-12.418964 5.644983-12.418963 12.418964v37.633223h-15.05329v-37.633223c0-15.053289 12.418964-27.472253 27.472253-27.472253h462.13598c15.053289 0 27.472253 12.418964 27.472252 27.472253v37.633223zM239.347299 887.3914c-4.139655 0-7.526645-3.38699-7.526645-7.526644v-68.492466c0-4.139655 3.38699-7.526645 7.526645-7.526645s7.526645 3.38699 7.526644 7.526645v68.492466c0 4.139655-3.38699 7.526645-7.526644 7.526644zM757.556781 887.3914c-4.139655 0-7.526645-3.38699-7.526645-7.526644v-68.492466c0-4.139655 3.38699-7.526645 7.526645-7.526645s7.526645 3.38699 7.526644 7.526645v68.492466c0 4.139655-3.38699 7.526645-7.526644 7.526644z" fill="#666666" p-id="10596"></path></svg>