<?xml version="1.0" standalone="no"?><!DOCTYPE svg PUBLIC "-//W3C//DTD SVG 1.1//EN" "http://www.w3.org/Graphics/SVG/1.1/DTD/svg11.dtd"><svg t="1584287974027" class="icon" viewBox="0 0 1024 1024" version="1.1" xmlns="http://www.w3.org/2000/svg" p-id="58064" xmlns:xlink="http://www.w3.org/1999/xlink" width="200" height="200"><defs><style type="text/css"></style></defs><path d="M449.1 672c-6.2 0-11.9-4-13.7-10.3l-18.1-62.2c-2.2-7.6 2.1-15.5 9.7-17.7 7.6-2.2 15.5 2.1 17.7 9.7l18.1 62.2c2.2 7.6-2.1 15.5-9.7 17.7-1.3 0.5-2.7 0.6-4 0.6z" fill="#2c2c2c" p-id="58065"></path><path d="M285.3 876.9c-10.6 0-21.4-1.2-32.2-3.6-4.6-1-8.3-4.2-10.1-8.5-1.8-4.3-1.3-9.2 1.3-13.2l134.8-206.3 281.7-460.6c0.1-0.1 0.2-0.3 0.2-0.4 8.2-12.4 20.7-21 35.4-24s29.6-0.2 42 8l3.9 2.5c25.8 16.9 33 51.7 16.1 77.4-0.1 0.2-0.2 0.3-0.3 0.4l-294.2 413c4.3 40.9-7.5 85-33.5 124.6-38.6 58.9-90.2 90.7-145.1 90.7z m-4.8-28.5c1.8 0.1 3.7 0.1 5.5 0.1 59.8 0 100.5-47.2 120.7-78 23.4-35.7 33.5-75 28.4-110.7-0.5-3.6 0.4-7.3 2.5-10.3l297.3-417.2c8.1-12.6 4.6-29.5-8-37.8L723 192c-6.1-4-13.4-5.4-20.6-3.9-7.1 1.5-13.3 5.6-17.2 11.6L403.3 660.3c-0.1 0.1-0.1 0.2-0.2 0.4L280.5 848.4z" fill="#2c2c2c" p-id="58066"></path></svg>