<?xml version="1.0" standalone="no"?><!DOCTYPE svg PUBLIC "-//W3C//DTD SVG 1.1//EN" "http://www.w3.org/Graphics/SVG/1.1/DTD/svg11.dtd"><svg t="1584285425132" class="icon" viewBox="0 0 1368 1024" version="1.1" xmlns="http://www.w3.org/2000/svg" p-id="8544" xmlns:xlink="http://www.w3.org/1999/xlink" width="267.1875" height="200"><defs><style type="text/css"></style></defs><path d="M1037.86666664 810.24H324.26666664c-26.24 0-48-21.76-48-48v-435.2c0-26.24 21.76-48 48-48h713.6c26.24 0 48 21.76 48 48v435.2c0 26.24-21.76 48-48 48zM324.26666664 297.6c-16 0-28.8 12.8-28.8 28.8v435.2c0 16 12.8 28.8 28.8 28.8h713.6c16 0 28.8-12.8 28.8-28.8V326.4c0-16-12.8-28.8-28.8-28.8H324.26666664z" fill="#2c2c2c" p-id="8545"></path><path d="M813.86666664 725.76c-99.84 0-181.76-81.28-181.76-181.76 0-99.84 81.28-181.76 181.76-181.76s181.76 81.28 181.76 181.76-81.92 181.76-181.76 181.76z m0-343.68c-89.6 0-162.56 72.96-162.56 162.56s72.96 162.56 162.56 162.56 162.56-72.96 162.56-162.56-72.96-162.56-162.56-162.56z" fill="#2c2c2c" p-id="8546"></path><path d="M813.86666664 672.64c-70.4 0-128-57.6-128-128s57.6-128 128-128 128 57.6 128 128-57.6 128-128 128z m0-237.44c-60.16 0-108.8 48.64-108.8 108.8s48.64 108.8 108.8 108.8 108.8-48.64 108.8-108.8-48.64-108.8-108.8-108.8z" fill="#2c2c2c" p-id="8547"></path><path d="M471.46666664 252.16H356.26666664c-7.04 0-12.8-5.76-12.8-12.8v-18.56c0-7.04 5.76-12.8 12.8-12.8h115.2c7.04 0 12.8 5.76 12.8 12.8v18.56c0 7.04-5.12 12.8-12.8 12.8" fill="#2c2c2c" p-id="8548"></path><path d="M457.38666664 459.52H374.82666664c-17.28 0-30.72-14.08-30.72-30.72v-43.52c0-17.28 14.08-30.72 30.72-30.72h82.56c17.28 0 30.72 14.08 30.72 30.72V428.8c0 16.64-13.44 30.72-30.72 30.72zM374.82666664 373.76c-6.4 0-11.52 5.12-11.52 11.52V428.8c0 6.4 5.12 11.52 11.52 11.52h82.56c6.4 0 11.52-5.12 11.52-11.52v-43.52c0-6.4-5.12-11.52-11.52-11.52H374.82666664z" fill="#2c2c2c" p-id="8549"></path></svg>