<?xml version="1.0" standalone="no"?><!DOCTYPE svg PUBLIC "-//W3C//DTD SVG 1.1//EN" "http://www.w3.org/Graphics/SVG/1.1/DTD/svg11.dtd"><svg t="1584277296764" class="icon" viewBox="0 0 1024 1024" version="1.1" xmlns="http://www.w3.org/2000/svg" p-id="1873" xmlns:xlink="http://www.w3.org/1999/xlink" width="200" height="200"><defs><style type="text/css"></style></defs><path d="M792.73 959.5h-0.06c-33.61-0.02-66.05-14.1-89-38.65-22.95-24.55-34.83-57.87-32.59-91.4l12.55-187.77c0.7-10.48-4.88-20.37-14.22-25.18l-46.17-23.78c-49.53-25.52-70.95-83.64-49.82-135.2l134.44-328.05c0.16-0.39 0.32-0.77 0.49-1.16 17.34-38.76 55.98-63.8 98.45-63.8 59.47 0 107.85 48.38 107.85 107.85v665.23c0 32.58-12.69 63.2-35.73 86.23-23.03 23.01-53.63 35.68-86.19 35.68z m-12.01-799.36L646.57 487.49c-5.46 13.32 0.08 28.34 12.88 34.94l46.16 23.78c37.36 19.25 59.7 58.79 56.9 100.73l-12.55 187.78c-0.8 11.97 3.27 23.38 11.46 32.14s19.3 13.58 31.29 13.59h0.02c11.45 0 22.21-4.45 30.3-12.55 8.1-8.1 12.56-18.86 12.56-30.32V172.35c0-15.88-12.92-28.8-28.79-28.8-11.17 0.01-21.35 6.5-26.08 16.59zM303.99 959.5H303.87c-33.57-0.04-65.97-14.12-88.9-38.65-22.77-24.35-34.64-57.33-32.65-90.59l8.51-289.92c0.69-23.38-8.99-45.66-26.53-61.13a162.298 162.298 0 0 1-54.96-121.71V68.45h79.06V357.5c0 23.87 10.27 46.62 28.18 62.4 35.24 31.06 54.66 75.81 53.28 122.76l-8.53 290.58c-0.01 0.49-0.04 0.98-0.07 1.47-0.8 11.96 3.27 23.38 11.46 32.14 8.17 8.74 19.25 13.56 31.21 13.59 11.96-0.03 23.04-4.85 31.21-13.59 8.19-8.76 12.26-20.17 11.46-32.14-0.03-0.49-0.06-0.98-0.07-1.48L338 542.65c-1.38-46.95 18.04-91.7 53.28-122.76a83.198 83.198 0 0 0 28.18-62.4V68.45h79.06V357.5c0 46.56-20.03 90.92-54.96 121.71-17.55 15.47-27.22 37.75-26.53 61.14l8.51 289.92c2 33.26-9.87 66.24-32.64 90.59-22.88 24.47-55.18 38.54-88.67 38.65-0.09-0.01-0.16-0.01-0.24-0.01z" fill="#2c2c2c" p-id="1874"></path><path d="M264.4 68.45h79.06V385.7H264.4z" fill="#2c2c2c" p-id="1875"></path></svg>