<?xml version="1.0" standalone="no"?><!DOCTYPE svg PUBLIC "-//W3C//DTD SVG 1.1//EN" "http://www.w3.org/Graphics/SVG/1.1/DTD/svg11.dtd"><svg t="1584287070574" class="icon" viewBox="0 0 1024 1024" version="1.1" xmlns="http://www.w3.org/2000/svg" p-id="26985" xmlns:xlink="http://www.w3.org/1999/xlink" width="200" height="200"><defs><style type="text/css"></style></defs><path d="M267.1 437.3c-38.8 0-70.4-31.6-70.4-70.4V81.8c0-11-8.9-19.8-19.8-19.8-11 0-19.8 8.9-19.8 19.8v285.1c0 53.9 39 98.9 90.2 108.3v467c0 11 8.9 19.8 19.8 19.8s19.8-8.9 19.8-19.8v-485c0.1-11.1-8.8-19.9-19.8-19.9zM843.2 178.9l-0.4-3.3c-0.3-3.3-0.7-6.6-1.4-10-18.5-91-101-92.1-104.5-92.1h-81.6c-29.6 0-89.6 19.2-104.5 92.1-0.7 3.3-1 6.7-1.4 9.9l-24.2 191.3c0 53.9 39 98.9 90.2 108.3v467c0 11 8.9 19.8 19.8 19.8 11 0 19.8-8.9 19.8-19.8v-485c0-11-8.9-19.8-19.8-19.8-38.8 0-70.4-31.6-70.5-67.8l23.7-185.6 0.5-4.1c0.2-2 0.4-4.1 0.8-6.1 12.1-59.6 63.4-60.3 65.6-60.3H737c2.2 0 53.4 0.7 65.5 60.3 0.4 2 0.6 4.1 0.8 6.1l24 187.2c0 38.8-31.6 70.4-70.4 70.4-11 0-19.8 8.9-19.8 19.8v485c0 11 8.9 19.8 19.8 19.8 11 0 19.8-8.9 19.8-19.8v-467c51.2-9.4 90.2-54.6 90.1-110.8l-23.6-185.5zM457.7 62c-11 0-19.8 8.9-19.8 19.8v285.1c0 38.8-31.6 70.4-70.4 70.4-11 0-19.8 8.9-19.8 19.8v485c0 11 8.9 19.8 19.8 19.8 11 0 19.8-8.9 19.8-19.8v-467c51.2-9.4 90.2-54.4 90.2-108.3v-285c0-10.9-8.9-19.8-19.8-19.8z" fill="#2c2c2c" p-id="26986"></path><path d="M275.5 62c-11 0-19.8 8.9-19.8 19.8v297.9c0 11 8.9 19.8 19.8 19.8s19.8-8.9 19.8-19.8V81.8c0-10.9-8.9-19.8-19.8-19.8zM379 379.8v-298c0-11-8.9-19.8-19.8-19.8s-19.8 8.9-19.8 19.8v297.9c0 11 8.9 19.8 19.8 19.8s19.8-8.8 19.8-19.7z" fill="#2c2c2c" p-id="26987"></path></svg>