<?xml version="1.0" standalone="no"?><!DOCTYPE svg PUBLIC "-//W3C//DTD SVG 1.1//EN" "http://www.w3.org/Graphics/SVG/1.1/DTD/svg11.dtd"><svg t="1584286261414" class="icon" viewBox="0 0 1024 1024" version="1.1" xmlns="http://www.w3.org/2000/svg" p-id="20940" xmlns:xlink="http://www.w3.org/1999/xlink" width="200" height="200"><defs><style type="text/css"></style></defs><path d="M197.6 830.1H700.5c12.4 0 22.4-10 22.4-22.4s-10-22.4-22.4-22.4h-30.9V413.4l45.1 0.2V720c0 34.7 28.2 62.8 62.8 62.8 34.7 0 62.8-28.2 62.8-62.8V273.1c0-6.1-2.5-12-6.9-16.2l-74.2-70.7c-8.9-8.5-23.1-8.2-31.7 0.7-8.5 9-8.2 23.1 0.7 31.7L781 269l-33 20.2c-10.6 6.5-13.9 20.2-7.4 30.8 4.2 6.9 11.6 10.7 19.1 10.7 4 0 8-1.1 11.7-3.3l24-14.7V720c0 10-8.1 18-18 18s-18-8.1-18-18V391.3c0-12.3-10-22.4-22.3-22.4l-67.6-0.3V235c0-57-46.3-103.3-103.3-103.3H331.8c-57 0-103.3 46.3-103.3 103.3v550.3h-30.9c-12.4 0-22.4 10-22.4 22.4s10 22.4 22.4 22.4zM273.3 235c0-32.2 26.2-58.5 58.5-58.5h234.5c32.2 0 58.5 26.2 58.5 58.5v550.3H273.3V235z" fill="#2c2c2c" p-id="20941"></path><path d="M534.9 256.3H363.1c-12.4 0-22.4 10-22.4 22.4 0 12.4 10 22.4 22.4 22.4h171.8c12.4 0 22.4-10 22.4-22.4 0-12.4-10-22.4-22.4-22.4zM826.1 844.3H198.9c-12.3 0-22.4 10.1-22.4 22.4 0 12.3 10.1 22.4 22.4 22.4h627.2c12.3 0 22.4-10.1 22.4-22.4 0-12.3-10.1-22.4-22.4-22.4zM933.7 844.3h-44.8c-12.3 0-22.4 10.1-22.4 22.4 0 12.3 10.1 22.4 22.4 22.4h44.8c12.3 0 22.4-10.1 22.4-22.4 0-12.3-10.1-22.4-22.4-22.4zM136.1 844.3H91.3c-12.3 0-22.4 10.1-22.4 22.4 0 12.3 10.1 22.4 22.4 22.4h44.8c12.3 0 22.4-10.1 22.4-22.4 0-12.3-10.1-22.4-22.4-22.4z" fill="#2c2c2c" p-id="20942"></path></svg>