<?xml version="1.0" standalone="no"?><!DOCTYPE svg PUBLIC "-//W3C//DTD SVG 1.1//EN" "http://www.w3.org/Graphics/SVG/1.1/DTD/svg11.dtd"><svg t="1584285459625" class="icon" viewBox="0 0 1024 1024" version="1.1" xmlns="http://www.w3.org/2000/svg" p-id="9215" xmlns:xlink="http://www.w3.org/1999/xlink" width="200" height="200"><defs><style type="text/css"></style></defs><path d="M705.5 808.2H321.2c-33 0-59.8-26.8-59.8-59.8V168.8c0-33 26.8-59.8 59.8-59.8h384.3c33 0 59.8 26.8 59.8 59.8v579.6c0 33-26.8 59.8-59.8 59.8zM321.2 152.8c-8.8 0-16 7.2-16 16v579.6c0 8.8 7.2 16 16 16h384.3c8.7 0 16-7.3 16-16V168.8c0-8.8-7.2-16-16-16H321.2z" fill="#2c2c2c" p-id="9216"></path><path d="M562.5 289H464c-12.5 0-22.7-10.2-22.7-22.7s10.2-22.7 22.7-22.7h98.5c12.5 0 22.7 10.2 22.7 22.7S575.1 289 562.5 289zM513.3 714c-62.6 0-113.5-50.9-113.5-113.5S450.7 487 513.3 487s113.5 50.9 113.5 113.5S575.9 714 513.3 714z m0-189.6c-42 0-76.2 34.2-76.2 76.2s34.2 76.2 76.2 76.2 76.2-34.2 76.2-76.2c0-42.1-34.2-76.2-76.2-76.2z" fill="#2c2c2c" p-id="9217"></path><path d="M513 629.8c-3.5 0-7.1-0.7-10.5-2-14.6-5.8-21.6-22.4-15.8-36.9l0.7-1.8c5.8-14.6 22.3-21.7 36.9-15.8 14.6 5.8 21.6 22.4 15.8 36.9l-0.7 1.8c-4.5 11.1-15.2 17.8-26.4 17.8z" fill="#2c2c2c" p-id="9218"></path><path d="M411.1 919.5H255.8c-12.5 0-22.7-10.2-22.7-22.7s10.2-22.7 22.7-22.7h132.5v-85.7c0-12.5 10.2-22.7 22.7-22.7s22.7 10.2 22.7 22.7v108.4c0.1 12.5-10.1 22.7-22.6 22.7zM770.8 919.5H615.6c-12.5 0-22.7-10.2-22.7-22.7V788.4c0-12.5 10.2-22.7 22.7-22.7s22.7 10.2 22.7 22.7v85.7h132.5c12.5 0 22.7 10.2 22.7 22.7s-10.1 22.7-22.7 22.7z" fill="#2c2c2c" p-id="9219"></path></svg>