<?xml version="1.0" standalone="no"?><!DOCTYPE svg PUBLIC "-//W3C//DTD SVG 1.1//EN" "http://www.w3.org/Graphics/SVG/1.1/DTD/svg11.dtd"><svg t="1584287386092" class="icon" viewBox="0 0 1024 1024" version="1.1" xmlns="http://www.w3.org/2000/svg" p-id="50362" xmlns:xlink="http://www.w3.org/1999/xlink" width="200" height="200"><defs><style type="text/css"></style></defs><path d="M887.466667 292.266667c-2.133333-6.4-6.4-12.8-12.8-14.933334-6.4-2.133333-14.933333 0-19.2 4.266667l-64 64-87.466667-27.733333-25.6-85.333334 64-64c4.266667-4.266667 6.4-12.8 4.266667-19.2s-8.533333-10.666667-14.933334-12.8c-59.733333-10.666667-121.6 10.666667-162.133333 53.333334-55.466667 55.466667-70.4 136.533333-38.4 209.066666L162.133333 763.733333c-14.933333 14.933333-21.333333 32-21.333333 53.333334 0 19.2 8.533333 38.4 21.333333 53.333333 14.933333 14.933333 34.133333 21.333333 53.333334 21.333333s38.4-6.4 53.333333-21.333333l369.066667-369.066667c68.266667 25.6 145.066667 8.533333 198.4-42.666666 40.533333-44.8 59.733333-106.666667 51.2-166.4z m-83.2 147.2c-32 32-93.866667 38.4-136.533334 19.2-4.266667-2.133333-42.666667-14.933333-46.933333-10.666667L228.266667 840.533333c-10.666667 10.666667-27.733333 10.666667-38.4 0-4.266667-4.266667-8.533333-12.8-8.533334-19.2 0-6.4 2.133333-14.933333 8.533334-19.2l390.4-390.4c4.266667-4.266667-14.933333-34.133333-17.066667-40.533333-23.466667-44.8-17.066667-102.4 17.066667-136.533333 17.066667-21.333333 57.6-53.333333 102.4-66.133334l-34.133334 53.333334c-4.266667 4.266667-4.266667 14.933333-2.133333 19.2l34.133333 98.133333c2.133333 4.266667 4.266667 8.533333 8.533334 8.533333l106.666666 32c4.266667 2.133333 10.666667 0 12.8-4.266666l46.933334-46.933334c0 27.733333-32 93.866667-51.2 110.933334z" fill="#2c2c2c" p-id="50363"></path><path d="M599.466667 689.066667l-53.333334-53.333334c-8.533333-8.533333-8.533333-23.466667 0-34.133333 8.533333-8.533333 23.466667-8.533333 34.133334 0l53.333333 53.333333c8.533333 8.533333 8.533333 23.466667 0 34.133334-8.533333 8.533333-23.466667 8.533333-34.133333 0zM386.133333 473.6l-49.066666-49.066667c-8.533333-8.533333-8.533333-23.466667 0-34.133333 8.533333-8.533333 23.466667-8.533333 34.133333 0l49.066667 49.066667c8.533333 8.533333 8.533333 23.466667 0 34.133333-10.666667 8.533333-25.6 8.533333-34.133334 0z" fill="#2c2c2c" p-id="50364"></path><path d="M817.066667 780.8l-153.6-153.6c-8.533333-8.533333-19.2-8.533333-27.733334 0l-64 64c-8.533333 8.533333-8.533333 19.2 0 27.733333l153.6 153.6c8.533333 8.533333 19.2 8.533333 27.733334 0l64-64c6.4-8.533333 6.4-19.2 0-27.733333z m-81.066667 40.533333l-110.933333-110.933333c-2.133333-2.133333-2.133333-6.4 0-8.533333l21.333333-21.333334c2.133333-2.133333 6.4-2.133333 8.533333 0l110.933334 110.933334c2.133333 2.133333 2.133333 6.4 0 8.533333l-21.333334 21.333333c-2.133333 2.133333-6.4 2.133333-8.533333 0zM394.666667 347.733333l-149.333334-149.333333c-14.933333-14.933333-38.4-14.933333-53.333333 0l-46.933333 46.933333c-14.933333 14.933333-14.933333 38.4 0 53.333334l149.333333 149.333333c14.933333 14.933333 38.4 14.933333 53.333333 0l46.933334-46.933333c14.933333-14.933333 14.933333-38.4 0-53.333334z m-57.6 44.8c-8.533333 8.533333-25.6 8.533333-34.133334 0l-102.4-102.4c-8.533333-8.533333-8.533333-25.6 0-34.133333 8.533333-8.533333 25.6-8.533333 34.133334 0l102.4 102.4c8.533333 8.533333 8.533333 23.466667 0 34.133333z" fill="#2c2c2c" p-id="50365"></path></svg>