<?xml version="1.0" standalone="no"?><!DOCTYPE svg PUBLIC "-//W3C//DTD SVG 1.1//EN" "http://www.w3.org/Graphics/SVG/1.1/DTD/svg11.dtd"><svg t="1584286221072" class="icon" viewBox="0 0 1024 1024" version="1.1" xmlns="http://www.w3.org/2000/svg" p-id="19540" xmlns:xlink="http://www.w3.org/1999/xlink" width="200" height="200"><defs><style type="text/css"></style></defs><path d="M473.6 691.2L496 816v3.2c0 40-12.8 75.2-36.8 91.2-28.8 20.8-68.8 9.6-108.8-30.4-4.8-4.8-22.4-27.2-54.4-72l25.6-19.2c30.4 41.6 48 65.6 51.2 68.8 32 30.4 54.4 36.8 68.8 27.2 14.4-9.6 22.4-33.6 22.4-64l-20.8-123.2 30.4-6.4z m-276.8-139.2l116.8 8-1.6 32-115.2-8c-9.6 0-22.4 1.6-35.2 4.8-32 9.6-40 24-14.4 62.4 12.8 20.8 44.8 41.6 92.8 60.8l-11.2 30.4c-54.4-22.4-91.2-46.4-108.8-73.6-38.4-57.6-19.2-97.6 32-110.4 16-4.8 32-6.4 44.8-6.4z" fill="#2c2c2c" p-id="19541"></path><path d="M886.4 115.2c20.8 19.2 33.6 44.8 35.2 72s-8 54.4-27.2 75.2c-40 49.6-80 97.6-120 144l124.8 340.8c1.6 3.2 1.6 4.8 3.2 8 4.8 14.4 6.4 17.6 9.6 24 4.8 17.6 6.4 32 3.2 48s-24 32-59.2 51.2c-14.4 8-30.4 9.6-44.8 4.8-11.2-3.2-73.6-80-225.6-278.4-56 54.4-112 105.6-171.2 153.6-67.2 56-137.6 75.2-177.6 38.4-40-36.8-28.8-113.6 22.4-179.2 48-62.4 100.8-124.8 155.2-184C225.6 280 152 219.2 148.8 208c-4.8-14.4-3.2-30.4 4.8-43.2 17.6-41.6 35.2-62.4 59.2-62.4 8 0 16 1.6 24 3.2 12.8 3.2 20.8 4.8 43.2 14.4l4.8 1.6L603.2 240c43.2-40 88-80 134.4-118.4 40-41.6 105.6-44.8 148.8-6.4zM619.2 568l-14.4 14.4c68.8 88 120 155.2 156.8 200 19.2 24 33.6 43.2 44.8 54.4 4.8 6.4 9.6 11.2 12.8 14.4l1.6 1.6c6.4 1.6 11.2 0 17.6-3.2 27.2-14.4 43.2-27.2 43.2-30.4 1.6-9.6 1.6-19.2-3.2-30.4-1.6-6.4-3.2-9.6-8-22.4-1.6-3.2-1.6-4.8-3.2-6.4v-1.6L748.8 432c-41.6 48-84.8 92.8-129.6 136zM760 144C576 297.6 417.6 460.8 281.6 636.8c-41.6 54.4-51.2 113.6-25.6 136 25.6 22.4 78.4 8 136-40C563.2 590.4 721.6 425.6 870.4 240c12.8-14.4 19.2-33.6 19.2-52.8-1.6-19.2-9.6-36.8-24-49.6-32-25.6-76.8-24-105.6 6.4z m-550.4-12.8c-4.8 0-16 12.8-28.8 40l-1.6 4.8-1.6 1.6c-3.2 4.8-3.2 11.2-3.2 17.6l1.6 1.6c3.2 3.2 8 6.4 12.8 12.8 11.2 11.2 30.4 25.6 52.8 44.8 43.2 36.8 107.2 88 190.4 155.2 46.4-49.6 94.4-97.6 144-144L267.2 150.4c-25.6-9.6-32-12.8-43.2-14.4-4.8-3.2-9.6-4.8-14.4-4.8z" fill="#2c2c2c" p-id="19542"></path></svg>