<?xml version="1.0" standalone="no"?><!DOCTYPE svg PUBLIC "-//W3C//DTD SVG 1.1//EN" "http://www.w3.org/Graphics/SVG/1.1/DTD/svg11.dtd"><svg t="1584277262892" class="icon" viewBox="0 0 1024 1024" version="1.1" xmlns="http://www.w3.org/2000/svg" p-id="1728" xmlns:xlink="http://www.w3.org/1999/xlink" width="200" height="200"><defs><style type="text/css"></style></defs><path d="M512 921.6C229.12 921.6 0 692.48 0 409.6c0-14.08 11.52-25.6 25.6-25.6h972.8c14.08 0 25.6 11.52 25.6 25.6 0 282.88-229.12 512-512 512zM52.48 435.2c12.8 241.92 215.04 435.2 459.52 435.2 245.76 0 446.72-193.28 459.52-435.2H52.48z" fill="#333333" p-id="1729"></path><path d="M729.6 1024H294.4c-70.4 0-128-57.6-128-128v-120.32c0-14.08 11.52-25.6 25.6-25.6s25.6 11.52 25.6 25.6V896c0 42.24 34.56 76.8 76.8 76.8h435.2c42.24 0 76.8-34.56 76.8-76.8v-120.32c0-14.08 11.52-25.6 25.6-25.6s25.6 11.52 25.6 25.6V896c0 70.4-57.6 128-128 128zM896 435.2H128c-14.08 0-25.6-11.52-25.6-25.6C102.4 184.32 286.72 0 512 0s409.6 184.32 409.6 409.6c0 14.08-11.52 25.6-25.6 25.6z m-741.12-51.2H870.4C856.32 198.4 701.44 51.2 512 51.2S167.68 198.4 154.88 384z" fill="#333333" p-id="1730"></path><path d="M896 435.2H128c-14.08 0-25.6-11.52-25.6-25.6C102.4 184.32 286.72 0 512 0s409.6 184.32 409.6 409.6c0 14.08-11.52 25.6-25.6 25.6z m-741.12-51.2H870.4C856.32 198.4 701.44 51.2 512 51.2S167.68 198.4 154.88 384z" fill="#333333" p-id="1731"></path><path d="M701.44 244.48c-6.4 0-12.8-2.56-17.92-7.68-21.76-21.76-48.64-39.68-76.8-52.48-14.08-6.4-29.44-11.52-46.08-14.08-14.08-2.56-23.04-16.64-20.48-30.72 2.56-14.08 16.64-23.04 30.72-20.48 19.2 3.84 37.12 10.24 55.04 16.64 34.56 15.36 66.56 35.84 93.44 62.72 10.24 10.24 10.24 25.6 0 35.84-3.84 8.96-10.24 10.24-17.92 10.24zM362.24 212.48c-7.68 0-16.64-3.84-21.76-11.52-7.68-11.52-5.12-28.16 6.4-35.84 15.36-10.24 32-20.48 49.92-26.88 12.8-5.12 28.16 0 33.28 14.08 5.12 12.8 0 28.16-14.08 33.28-14.08 6.4-28.16 14.08-40.96 23.04-3.84 2.56-8.96 3.84-12.8 3.84z" fill="#333333" p-id="1732"></path></svg>